<svg xmlns="http://www.w3.org/2000/svg" viewBox="0 0 420 620"><defs><radialGradient id="g" cx="50%" cy="35%"><stop stop-color="#f7b56c"/><stop offset="1" stop-color="#b85e28"/></radialGradient></defs><rect width="420" height="620" fill="#0b0b0d"/><circle cx="210" cy="125" r="88" fill="url(#g)" stroke="#f4db91" stroke-width="5"/><ellipse cx="180" cy="108" rx="20" ry="28" fill="#fff"/><ellipse cx="240" cy="108" rx="20" ry="28" fill="#fff"/><circle cx="182" cy="114" r="9"/><circle cx="238" cy="114" r="9"/><circle cx="165" cy="145" r="16" fill="#e86d55"/><circle cx="255" cy="145" r="16" fill="#e86d55"/><ellipse cx="210" cy="145" rx="10" ry="18" fill="#c97043"/><ellipse cx="210" cy="172" rx="17" ry="23" fill="#5d1a19"/><path d="M130 59q80-44 160 0v30q-80-32-160 0z" fill="#f6f3e8" stroke="#24304b" stroke-width="4"/><g fill="#24304b"><circle cx="150" cy="70" r="5"/><circle cx="175" cy="62" r="5"/><circle cx="202" cy="58" r="5"/><circle cx="230" cy="60" r="5"/><circle cx="258" cy="68" r="5"/></g><path d="M125 250q85-65 170 0l35 125-55 28-25-80v180h-80V323l-25 80-55-28z" fill="url(#g)" stroke="#d08a50" stroke-width="3"/><path d="M152 240q58 45 116 0" fill="none" stroke="#5e2e1b" stroke-width="7"/><path d="M185 260v165M235 260v165" stroke="#7a3c21" stroke-width="5" opacity=".45"/><g fill="#8a4d27"><rect x="165" y="255" width="25" height="42" rx="12"/><rect x="195" y="255" width="25" height="42" rx="12"/><rect x="225" y="255" width="25" height="42" rx="12"/></g><path d="M145 445h130v85H145z" fill="#101014"/><text x="210" y="493" text-anchor="middle" font-family="Arial" font-size="28" fill="#fff" font-weight="700">S.u.G</text><path d="M160 530l-15 80M260 530l15 80" stroke="#c46f38" stroke-width="48" stroke-linecap="round"/><text x="210" y="590" text-anchor="middle" font-family="sans-serif" font-size="19" fill="#f4db91" font-weight="700">将来の自分・ひょっとこ</text></svg>