<svg xmlns="http://www.w3.org/2000/svg" viewBox="0 0 720 900">
<rect width="720" height="900" rx="34" fill="#fff"/><rect x="18" y="18" width="684" height="864" rx="28" fill="none" stroke="#c8a34b" stroke-width="3"/>
<text x="42" y="78" font-family="sans-serif" font-size="50" font-weight="800" fill="#111">胸椎伸展</text><text x="42" y="118" font-family="sans-serif" font-size="22" font-weight="700" fill="#a77d22">腰ではなく、胸の後ろを動かす</text>
<ellipse cx="365" cy="495" rx="55" ry="55" fill="#333"/><circle cx="160" cy="405" r="31" fill="#222"/><path d="M190 420 C280 390 320 410 365 455 C410 505 475 525 560 520" fill="none" stroke="#222" stroke-width="18" stroke-linecap="round"/><line x1="520" y1="520" x2="575" y2="635" stroke="#222" stroke-width="16"/><line x1="470" y1="520" x2="435" y2="635" stroke="#222" stroke-width="16"/>
<path d="M285 430 C330 350 425 335 470 390" fill="none" stroke="#c8a34b" stroke-width="10"/><path d="M455 374 l22 18 -28 8" fill="#c8a34b"/>
<text x="42" y="665" font-family="sans-serif" font-size="24" font-weight="800" fill="#111">① 胸の後ろにローラーを置く</text><text x="42" y="710" font-family="sans-serif" font-size="24" font-weight="800" fill="#111">② 息を吐いて肋骨を整える</text><text x="42" y="755" font-family="sans-serif" font-size="24" font-weight="800" fill="#111">③ 胸椎だけをゆっくり伸ばす</text><text x="42" y="800" font-family="sans-serif" font-size="24" font-weight="800" fill="#111">④ 6〜8回 × 2set</text>
<rect x="42" y="824" width="636" height="40" rx="14" fill="#f7f1e4"/><text x="62" y="851" font-family="sans-serif" font-size="19" font-weight="700" fill="#75561d">NG：腰だけ反る／首をつめる</text>
</svg>
