<svg xmlns="http://www.w3.org/2000/svg" viewBox="0 0 720 900">
<rect width="720" height="900" rx="34" fill="#fff"/><rect x="18" y="18" width="684" height="864" rx="28" fill="none" stroke="#c8a34b" stroke-width="3"/>
<text x="42" y="78" font-family="sans-serif" font-size="44" font-weight="800" fill="#111">Wall Press Breathing</text><text x="42" y="118" font-family="sans-serif" font-size="22" font-weight="700" fill="#a77d22">壁を押しながらrib flareを抑える</text>
<line x1="555" y1="180" x2="555" y2="570" stroke="#aaa" stroke-width="8"/><circle cx="350" cy="260" r="34" fill="#222"/><line x1="350" y1="295" x2="350" y2="470" stroke="#222" stroke-width="18" stroke-linecap="round"/><line x1="350" y1="330" x2="545" y2="330" stroke="#222" stroke-width="14"/><line x1="350" y1="468" x2="290" y2="590" stroke="#222" stroke-width="16"/><line x1="350" y1="468" x2="420" y2="590" stroke="#222" stroke-width="16"/>
<path d="M338 360 C310 385 310 425 338 450" fill="none" stroke="#59baff" stroke-width="9"/><path d="M366 360 C398 385 400 425 366 450" fill="none" stroke="#59baff" stroke-width="9"/><path d="M500 305 l35 25 -35 25" fill="none" stroke="#c8a34b" stroke-width="8"/>
<text x="42" y="650" font-family="sans-serif" font-size="24" font-weight="800" fill="#111">① 両手で壁を軽く押す</text><text x="42" y="695" font-family="sans-serif" font-size="24" font-weight="800" fill="#111">② 口から長く吐く</text><text x="42" y="740" font-family="sans-serif" font-size="24" font-weight="800" fill="#111">③ みぞおちを軽くへこませる</text><text x="42" y="785" font-family="sans-serif" font-size="24" font-weight="800" fill="#111">④ 背中・脇にも息を入れる</text>
<rect x="42" y="815" width="636" height="48" rx="15" fill="#f7f1e4"/><text x="62" y="846" font-family="sans-serif" font-size="19" font-weight="700" fill="#75561d">NG：胸を張りすぎる／腰を反る／肩をすくめる</text>
</svg>
